Coordinates
version=1
nRows=24
nColumns=22
inDegrees=yes

Units are S.I. units (second, meters, Newtons, ...)
If the header above contains a line with 'inDegrees', this indicates whether rotational values are in degrees (yes) or radians (no).

endheader
time	pelvis_tilt	pelvis_list	pelvis_rotation	pelvis_tx	pelvis_ty	pelvis_tz	hip_flexion_r	hip_adduction_r	hip_rotation_r	knee_angle_r	ankle_angle_r	subtalar_angle_r	hip_flexion_l	hip_adduction_l	hip_rotation_l	knee_angle_l	ankle_angle_l	subtalar_angle_l	lumbar_extension	lumbar_bending	lumbar_rotation
      3.48000000	     -3.14481854	      3.59248276	     15.64106929	     -0.02603861	      0.89466283	     -0.44561541	     -0.14936281	      3.53070955	     15.94745968	    -49.49218370	     -9.95749202	     -3.46091305	     20.90975975	     -3.82660138	     -2.55260444	    -25.74266405	      3.51988101	      8.33757631	     -4.11677286	     -8.24917799	      6.10520239
      3.49000000	     -3.25937447	      3.88444314	     14.32061183	     -0.01879979	      0.89590585	     -0.44840735	      1.82012999	      3.06959133	     15.12792276	    -52.61076531	    -12.20836665	     -3.25598001	     20.03552336	     -3.76548175	     -3.90694586	    -25.49446545	      4.01136168	      8.01410826	     -4.14800532	     -8.64752828	      5.58927002
      3.50000000	     -3.33922480	      4.13422745	     13.00430864	     -0.01188051	      0.89712669	     -0.45107458	      3.85542966	      2.63741977	     14.29770900	    -55.67930730	    -14.09917722	     -2.91501076	     19.09726485	     -3.71334835	     -5.25567538	    -25.09939257	      4.43486230	      7.78228546	     -4.24139594	     -8.95373507	      5.01075381
      3.51000000	     -3.41271029	      4.33949734	     11.69850162	     -0.00525445	      0.89825417	     -0.45361936	      5.94868955	      2.25557241	     13.51396477	    -58.64954124	    -15.51294865	     -2.36425163	     18.15700229	     -3.66397419	     -6.57868677	    -24.62604863	      4.87391572	      7.54628714	     -4.36322305	     -9.17702286	      4.33017953
      3.52000000	     -3.42836837	      4.49628561	     10.41557170	      0.00117118	      0.89938938	     -0.45605334	      7.99610805	      1.94811924	     12.76134566	    -61.43460543	    -16.44193058	     -1.66637105	     17.17232528	     -3.63244047	     -7.86298071	    -24.10139351	      5.29364148	      7.35031051	     -4.56537816	     -9.30597496	      3.56472623
      3.53000000	     -3.37333295	      4.58896062	      9.17859973	      0.00746171	      0.90056335	     -0.45841412	      9.94705425	      1.73462545	     12.00754536	    -63.97285077	    -16.87829810	     -0.86965688	     16.15218829	     -3.62996199	     -9.06578758	    -23.57093662	      5.73311067	      7.15583324	     -4.85366314	     -9.32693677	      2.71815317
      3.54000000	     -3.22711848	      4.64481793	      7.96257212	      0.01373066	      0.90184328	     -0.46064711	     11.74757907	      1.58793483	     11.24230566	    -66.22270800	    -16.86865214	     -0.41898374	     15.05149750	     -3.64265208	    -10.22814480	    -23.02525536	      6.14640692	      7.07809588	     -5.24515282	     -9.28329862	      1.84928120
      3.55000000	     -3.02127859	      4.62750751	      6.82406707	      0.01993104	      0.90316278	     -0.46277580	     13.41467242	      1.54934871	     10.43044459	    -68.16089233	    -16.43706984	     -0.00784556	     13.97680968	     -3.70676588	    -11.32327606	    -22.58153499	      6.52204475	      6.94999225	     -5.71093922	     -9.14824984	      0.91110848
      3.56000000	     -2.76117323	      4.54746077	      5.74449970	      0.02612105	      0.90454610	     -0.46474016	     14.94167264	      1.62589972	      9.60184453	    -69.77147572	    -15.82537180	      0.25019156	     12.90392520	     -3.81303407	    -12.32730705	    -22.20717919	      6.84549857	      6.77978756	     -6.23735971	     -8.94658945	     -0.06445951
      3.57000000	     -2.45842282	      4.39625675	      4.74100973	      0.03234814	      0.90596754	     -0.46659312	     16.32488396	      1.79094833	      8.68769102	    -71.03600924	    -15.09040884	      0.28772294	     11.84067215	     -3.96963466	    -13.24261358	    -21.90419231	      7.18279817	      6.59657456	     -6.79803852	     -8.67322776	     -1.02488679
      3.58000000	     -2.11016853	      4.17115765	      3.81960912	      0.03858834	      0.90741906	     -0.46831903	     17.55839327	      2.04387155	      7.68243374	    -71.95830743	    -14.33788540	      0.05277858	     10.79063836	     -4.18683103	    -14.06292806	    -21.69079783	      7.51632510	      6.36615468	     -7.40409322	     -8.32927699	     -1.96822533
      3.59000000	     -1.77881182	      3.87395282	      2.97760515	      0.04480716	      0.90877880	     -0.46991132	     18.71372879	      2.38334447	      6.61163833	    -72.56228995	    -13.57363554	     -0.28589240	      9.81658024	     -4.46052302	    -14.76190611	    -21.56310141	      7.86219377	      6.18524915	     -7.98005533	     -7.92535573	     -2.88669600
      3.60000000	     -1.45525784	      3.52018765	      2.19517557	      0.05102921	      0.91005073	     -0.47135554	     19.78036960	      2.78596119	      5.48844379	    -72.85902448	    -12.81744121	     -0.67585232	      8.88863668	     -4.78194210	    -15.37792441	    -21.49787995	      8.21708829	      6.00989671	     -8.53123190	     -7.48072443	     -3.74236765
      3.61000000	     -1.15958329	      3.12338418	      1.45332892	      0.05724931	      0.91118332	     -0.47265491	     20.78277627	      3.23571629	      4.34202256	    -72.86720379	    -12.01328560	     -1.01336803	      8.01170025	     -5.13598646	    -15.91945735	    -21.47233345	      8.59606127	      5.85497812	     -9.03155948	     -7.00796341	     -4.51211629
      3.62000000	     -0.84984654	      2.70876029	      0.75341869	      0.06347518	      0.91222560	     -0.47388524	     21.67951737	      3.66485235	      3.13032904	    -72.59700177	    -11.21026305	     -1.44422296	      7.14613884	     -5.50372417	    -16.45420605	    -21.50483925	      8.97961377	      5.68491851	     -9.53491170	     -6.52554008	     -5.18360439
      3.63000000	     -0.57800002	      2.28560760	      0.06453813	      0.06971872	      0.91309163	     -0.47497405	     22.52612265	      4.09749968	      1.93170720	    -72.07056251	    -10.29887831	     -1.78823723	      6.30992570	     -5.86733651	    -16.95575134	    -21.53082658	      9.37940681	      5.53447954	     -9.97131961	     -6.05363456	     -5.75160593
      3.64000000	     -0.34916522	      1.85841870	     -0.62065539	      0.07599394	      0.91377105	     -0.47595192	     23.32908063	      4.51934690	      0.74504584	    -71.29575709	     -9.31037598	     -2.00385812	      5.50194812	     -6.22146082	    -17.43573875	    -21.54392768	      9.79955821	      5.40428608	    -10.33288600	     -5.59070396	     -6.20893425
      3.65000000	     -0.12586849	      1.44285680	     -1.29035026	      0.08226678	      0.91432594	     -0.47685234	     24.05056886	      4.89996538	     -0.44754693	    -70.28168967	     -8.29841808	     -2.22385830	      4.69092180	     -6.55592825	    -17.94414860	    -21.55284666	     10.21756862	      5.27471145	    -10.68163745	     -5.14814473	     -6.58341340
      3.66000000	      0.06260722	      1.05160593	     -1.96103148	      0.08857434	      0.91471265	     -0.47765782	     24.71785588	      5.23196101	     -1.62679362	    -69.03767720	     -7.25660067	     -2.39243094	      3.89732288	     -6.85448513	    -18.46629551	    -21.54707163	     10.63327887	      5.16138760	    -10.97184818	     -4.74051807	     -6.86447443
      3.67000000	      0.21582494	      0.69572606	     -2.63422792	      0.09488442	      0.91493943	     -0.47837985	     25.33662835	      5.50697969	     -2.78273696	    -67.57615204	     -6.23635243	     -2.52431591	      3.12033564	     -7.10535474	    -19.02000781	    -21.51614424	     11.03391199	      5.06363164	    -11.21513283	     -4.37339405	     -7.07781546
      3.68000000	      0.33707737	      0.37754736	     -3.31074341	      0.10121453	      0.91502052	     -0.47898123	     25.89715911	      5.72956874	     -3.91377019	    -65.89568507	     -5.27490722	     -2.63231072	      2.35177529	     -7.30906057	    -19.60674000	    -21.45082483	     11.42075378	      4.97473807	    -11.41313421	     -4.05569327	     -7.22774370
      3.69000000	      0.42024317	      0.11765953	     -3.99192302	      0.10754432	      0.91494968	     -0.47948210	     26.41007985	      5.87950347	     -5.01543647	    -64.01051207	     -4.38184681	     -2.71207625	      1.60129474	     -7.44123546	    -20.23290400	    -21.34718118	     11.77298401	      4.89011702	    -11.56478027	     -3.80182478	     -7.32852428
      3.70000000	      0.46567590	     -0.08466578	     -4.67730887	      0.11387624	      0.91473294	     -0.47987281	     26.87160540	      5.96297778	     -6.09176970	    -61.92224876	     -3.55099281	     -2.76469829	      0.87128129	     -7.50389192	    -20.89347648	    -21.20676812	     12.09114754	      4.80069493	    -11.67110709	     -3.60987446	     -7.39224575
      3.71000000	      0.48553337	     -0.23443590	     -5.35353360	      0.12022547	      0.91439293	     -0.48014600	     27.26466986	      5.98586741	     -7.16174727	    -59.63221446	     -2.81769603	     -2.81888498	      0.14714127	     -7.50198601	    -21.57541409	    -21.01988957	     12.37965762	      4.70512886	    -11.74644636	     -3.47510224	     -7.42142298
